<svg width="52" height="50" fill="none" xmlns="http://www.w3.org/2000/svg"><path fill-rule="evenodd" clip-rule="evenodd" d="M28.3 5V.2h-5.5l-2 3.3L23.3 6l5-.8Zm-5.8 6-6.7-6.7-3.3 3.3 5.6 5 4.4-1.7Zm7 3.8L26 12.4l.6-2.7 5.7-.4L40 15l-1.6 5-2.5 1.6-2.5-1.6v-2.5l-2.5-3.4-1.4.6ZM49 47.5h-1.7a.8.8 0 0 1 0-1.7h1.7a.8.8 0 1 1 0 1.7ZM49 36h1.6a.8.8 0 0 0 0-1.7h-1.6a.8.8 0 0 0 0 1.7Zm-10 0 5-3.4v-3.3l-5-5-3.3 3.3-3.4-3.3-3.3 2.5 3.3 4.2-2.5 5-2.5-4.2-5.8-2.5 3.3-6.6 2.5-3.4-5.8-3.3-3.3 3.3L7.5 8.4.8 16l2 8L0 26.8l2.5 7.5 20 10 2.4-4.2 5 3.3 3.4 6.7 4.1-6.7h6.7l.8-5-5.8-2.4Z" fill="#0E8784"/></svg>