<svg width="237" height="27" fill="none" xmlns="http://www.w3.org/2000/svg"><path fill-rule="evenodd" clip-rule="evenodd" d="M75.8 23.9c0 .5-.3.7-.8.7h-9c-.2 0-.4 0-.5-.2a.7.7 0 0 1-.2-.5v-.5l.5-.3.7-.2c.2 0 .3-.2.4-.3l.2-.7v-9.5L67 12a1 1 0 0 0-.5-.3l-.9-.3c-.3-.1-.4-.3-.5-.4a.8.8 0 0 1-.2-.5c0-.2 0-.4.2-.5l.6-.2H67l-.2-.6a238.8 238.8 0 0 0-1.2-2l-.2-1.4c0-1.5.5-2.6 1.5-3.5C68 1.4 69.3 1 71 1c1.2 0 2.2.2 3 .6A3.8 3.8 0 0 1 76.3 5c0 .9-.3 1.5-.8 2-.4.4-1 .6-1.7.6-.8 0-1.4-.2-1.9-.7-.5-.6-.7-1.2-.7-2V3.4c0-.4 0-.7-.2-.9-.2-.2-.4-.3-.7-.3-.4 0-.7.2-1 .5a2 2 0 0 0-.2 1.1c0 .6 0 1 .3 1.5s.6 1 1 1.3A36.8 36.8 0 0 0 72.3 9l.3.7v.1h2.5c.2 0 .4 0 .5.2.2 0 .2.2.2.5s0 .6-.4.8c-.3.2-.7.3-1.3.3H73v10.3c0 .3 0 .5.2.7 0 .2.2.3.4.3l1.4.2.6.2.2.6Zm-32.1.3c-1 .5-2.2.8-3.5.8-1.3 0-2.6-.3-3.7-1-1-.5-2-1.4-2.6-2.5a8 8 0 0 1-.9-4c0-1.5.3-2.9 1-4.1a7.4 7.4 0 0 1 6.8-4c1.4 0 2.5.3 3.4.7 1 .4 1.6 1 2.1 1.6.5.7.7 1.4.7 2.3 0 .8-.2 1.5-.7 2-.5.5-1.2.8-2 .8-1 0-1.6-.3-2.1-.8a3 3 0 0 1-.7-2v-1.1c0-.6 0-1-.3-1.3a1 1 0 0 0-.8-.4c-.4 0-.7.2-1 .5a3 3 0 0 0-.7 1.3l-.2 2.1c0 1.3.2 2.3.6 3.1.3.9.8 1.5 1.4 2 .7.3 1.4.6 2.2.6a5 5 0 0 0 2-.4c.6-.2 1-.6 1.3-1.2.1-.2.3-.3.4-.3h.5v.5a5.7 5.7 0 0 1-3.2 4.8Zm16.5-.3c-1.2.7-2.6 1-4.2 1s-3-.3-4.2-1a7 7 0 0 1-2.8-2.7 8 8 0 0 1-1-4 7.5 7.5 0 0 1 4-6.7c1.2-.7 2.6-1 4.2-1s3 .3 4.2 1c1.1.6 2 1.5 2.7 2.7a8 8 0 0 1 1 4 7.5 7.5 0 0 1-3.9 6.7Zm-3-.7c-.3 0-.7 0-1-.4-.3-.4-.6-1-.9-1.9a26 26 0 0 1-1.2-6.8c0-1 0-1.6.2-2 .1-.5.4-.8.7-.9.3 0 .7.1 1 .5.3.3.6 1 1 1.8a25 25 0 0 1 1 9c-.2.4-.5.6-.8.7Zm29.2 1.4c.5 0 .7-.2.7-.7 0-.3 0-.4-.2-.6a.9.9 0 0 0-.5-.2l-1.4-.2a.6.6 0 0 1-.5-.3v-11h1c.7 0 1.1-.1 1.4-.3.3-.2.4-.5.4-.8 0-.3 0-.4-.2-.5a1 1 0 0 0-.6-.2h-2.4a2 2 0 0 0-.3-.7V9l-1-1.1a37 37 0 0 1-2-2.5c-.2-.4-.3-1-.3-1.5s.1-.9.3-1.1c.2-.3.5-.5 1-.5.3 0 .5.1.7.3l.2.9v1.4c0 .9.2 1.5.7 2 .5.6 1.1.8 1.9.8.7 0 1.3-.2 1.7-.6.5-.5.7-1.1.7-2a3.8 3.8 0 0 0-2.3-3.5c-.8-.4-1.7-.6-2.9-.6-1.8 0-3.2.4-4.2 1.3S77 4.3 77 5.8a4.2 4.2 0 0 0 .8 2.6 254.6 254.6 0 0 1 .8 1.3v.1H77c-.2 0-.3 0-.5.2-.2.1-.2.3-.2.5l.1.5.6.4 1 .3.3.3.2.4v9.5c0 .3 0 .5-.2.7l-.4.3-.7.2a1 1 0 0 0-.4.3l-.2.5.2.5c.2.2.3.2.6.2h9Zm12.7-.5c-1 .6-2.2.9-3.6.9-1.5 0-2.9-.4-4-1-1.2-.6-2-1.5-2.7-2.7-.7-1.1-1-2.4-1-4 0-1.5.3-2.9 1-4a6.7 6.7 0 0 1 2.6-2.8c1.2-.7 2.7-1 4.3-1 1.4 0 2.6.3 3.7.8a6.3 6.3 0 0 1 3.2 5.4c0 .6-.2 1-.5 1.3-.3.3-.7.4-1.1.4h-7.5c.2 1 .6 1.7 1 2.3.9.9 2 1.3 3.3 1.3.9 0 1.6-.1 2.3-.5a3 3 0 0 0 1.4-1.7l.3-.3h.6v.5c0 1.1-.2 2-.8 3-.6.9-1.4 1.6-2.5 2.1Zm-5.8-8a12.9 12.9 0 0 1 .2-3.3l.6-1.2c.3-.3.5-.4.8-.4.4 0 .8.3 1.1 1 .3.6.5 1.7.5 3.2 0 .5-.2.7-.6.7h-2.6Zm21.4 8c-1 .6-2.3.9-3.6.9-1.6 0-2.9-.4-4-1-1.2-.6-2.1-1.5-2.8-2.7-.6-1.1-1-2.4-1-4 0-1.5.4-2.9 1-4a6.7 6.7 0 0 1 2.7-2.8c1.2-.7 2.6-1 4.3-1 1.4 0 2.6.3 3.7.8a6 6 0 0 1 3.1 5.5c0 .5-.1.9-.4 1.2-.3.3-.7.4-1.2.4h-7.4c.2 1 .5 1.7 1 2.3.8.9 2 1.3 3.3 1.3.9 0 1.6-.1 2.3-.5a3 3 0 0 0 1.3-1.7l.4-.3h.5l.1.5c0 1.1-.2 2-.8 3-.6.9-1.4 1.6-2.5 2.1Zm-5.8-8a13.4 13.4 0 0 1 .2-3.3l.6-1.2c.3-.3.5-.4.8-.4.4 0 .8.3 1 1 .4.6.6 1.7.6 3.2 0 .5-.2.7-.6.7h-2.6Zm19.7 8.3c-.1.2-.3.2-.6.2H120c-.3 0-.5 0-.6-.2a.7.7 0 0 1-.2-.5l.1-.5.3-.3.4-.1.3-.3.1-.8V13l-.4-.3h-.4a1 1 0 0 1-.4-.3V12l.1-.5.6-.3 4.6-1.4.7-.2h.4l.5.1.1.7.2 2.6.2-.6a5 5 0 0 1 1.6-2.2c.6-.5 1.3-.7 2-.7 1 0 1.7.3 2.2 1 .5.5.8 1.5.8 2.8 0 1.2-.3 2.2-.8 2.8-.5.6-1.2.9-2 .9s-1.4-.2-1.8-.6c-.4-.5-.6-1-.6-1.8V14c0-.3 0-.5-.2-.6 0-.2-.2-.3-.4-.3s-.4.2-.5.4c-.2.2-.3.5-.3.9l-.2 1.6v5.8c0 .3 0 .6.2.7 0 .2.2.3.4.4l1.3.2c.2 0 .4.2.5.3l.1.5c0 .2 0 .4-.2.5Zm13 .5c1.7 0 3-.3 4.3-1a7.5 7.5 0 0 0 3.9-6.6 8 8 0 0 0-1-4c-.7-1.3-1.6-2.2-2.8-2.8-1.2-.7-2.5-1-4.1-1-1.6 0-3 .3-4.3 1a7.6 7.6 0 0 0-3.9 6.7 8 8 0 0 0 1 4 7 7 0 0 0 2.8 2.7c1.2.7 2.6 1 4.1 1Zm.3-2.1c.3.3.6.5 1 .4.3 0 .6-.3.7-.8.2-.5.3-1.1.2-2a23.4 23.4 0 0 0-1.2-6.9c-.3-.9-.6-1.5-1-1.8-.3-.4-.6-.6-1-.5-.3 0-.5.4-.7.8l-.2 2a25.7 25.7 0 0 0 1.3 7l.9 1.8Zm20.8 2.2c1 0 1.7-.2 2.3-.6.6-.3 1-.7 1.3-1.2.3-.4.4-.8.4-1.2v-.4l-.4-.2h-.1l-.1.1c0 .2-.2.4-.3.4l-.4.2-.4-.2-.1-.5V14c0-1.5-.5-2.6-1.5-3.4-1-.8-2.5-1.2-4.6-1.2-1.6 0-3 .2-4 .6-1.2.4-2 1-2.6 1.6a3 3 0 0 0-.8 1.9c0 .7.2 1.2.6 1.6.4.4 1 .6 1.8.6 1 0 1.7-.3 2.2-.8.6-.5.9-1.2.9-2v-1.3c0-.3 0-.5.2-.7l.7-.2c.4 0 .6 0 .8.3.2.2.2.5.2 1v4.7h-1.1c-2.4 0-4.1.3-5.3 1.1a3.8 3.8 0 0 0-1.7 3.3c0 1.1.4 2 1.2 2.7.8.7 1.8 1 3.1 1 1 0 2-.2 2.8-.6.6-.3 1.1-.7 1.5-1.1.2.4.4.7.8 1a4 4 0 0 0 2.6.8Zm-5.6-3.2c.3.4.6.6 1 .6h.2l.5-.2v-4.3h-.7c-.4 0-.8.1-1 .5-.3.4-.4 1-.4 1.8 0 .7.1 1.3.4 1.6Zm17.1 3.2c2 0 3.4-.4 4.5-1.3 1-1 1.5-2.1 1.5-3.7 0-1-.2-1.7-.5-2.5-.4-.7-1-1.3-1.8-1.8-1-.6-2.1-1-3.7-1.6l-1.4-.5c-.3-.2-.5-.4-.6-.7l-.2-.7c0-.4.1-.7.4-.9.3-.2.7-.3 1.2-.3.7 0 1.4.2 2.1.7.7.5 1.4 1.4 2.2 2.6l.6.5c.2.1.4.2.6.1.2 0 .4-.2.4-.4v-1l-.4-3.1c0-.3-.2-.5-.3-.7a.6.6 0 0 0-.5-.2c-.1 0-.4 0-.6.2a34.7 34.7 0 0 0-1.4.6s-.3 0-.5-.2a5.2 5.2 0 0 0-2.6-.6c-1.2 0-2.2.2-3 .6a4.7 4.7 0 0 0-2.9 4.4c0 1 .1 1.8.5 2.5a5 5 0 0 0 1.8 1.8c.8.4 1.8.9 3 1.2l1.8.6c.4.2.7.4.9.7l.2.8c0 .4-.1.8-.4 1-.3.3-.7.4-1.2.4-.6 0-1 0-1.5-.3a5 5 0 0 1-1.5-1.2 18 18 0 0 1-1.7-2.2l-.6-.6a.8.8 0 0 0-.7 0c-.2.2-.4.3-.5.6l.1 1 .5 3.4c0 .3.2.5.3.6l.5.2c.2 0 .4 0 .7-.2l.8-.3c.2-.2.4-.2.6-.2.2 0 .4 0 .6.2l1 .3 1.7.2Zm15.5-.6c-.8.4-1.6.6-2.6.6-1.6 0-2.9-.5-3.7-1.3-.8-.8-1.3-2-1.3-3.8v-8l-.3-.3-.8-.2c-.2 0-.3-.2-.4-.3v-.5c0-.2 0-.4.2-.6l.6-.2h.8l.3-.1c.1 0 .3-.2.4-.5l3-2.5.7-.6.7-.2c.2 0 .4 0 .6.2l.2.8v3h3.9c.2.2.2.3.2.6s-.1.5-.4.7c-.3.3-.7.4-1.3.4h-2.4V19c0 .8.1 1.5.4 1.9.3.3.7.5 1.2.5l.6-.1.6-.4.4-.5.4-.6h.3l.1.5c0 1-.3 1.7-.7 2.4-.5.7-1 1.2-1.7 1.6Zm10.6.6c1.4 0 2.6-.3 3.7-.9 1-.5 1.9-1.2 2.5-2.1.5-1 .8-1.9.8-3v-.4l-.4-.2-.2.1-.4.3a3 3 0 0 1-1.3 1.7c-.7.4-1.5.5-2.3.5-1.4 0-2.5-.4-3.3-1.3-.5-.6-.8-1.3-1-2.2v-.1h7.4c.5 0 .9-.1 1.1-.4h.1c.3-.3.4-.7.4-1.2a6 6 0 0 0-3.2-5.4c-1-.6-2.2-1-3.6-1-1.7 0-3.1.4-4.3 1-1.2.7-2 1.7-2.7 2.8-.6 1.2-1 2.6-1 4.2 0 1.5.4 2.8 1 4 .7 1 1.6 2 2.7 2.6 1.2.6 2.5 1 4 1Zm-2.1-9.7v.8h2.5c.5 0 .7-.2.7-.7 0-1.5-.2-2.6-.5-3.2-.4-.7-.7-1-1.1-1a1 1 0 0 0-.8.4l-.6 1.2-.2 2.5Zm19 9.3c.4 0 .5 0 .7-.2l.2-.5c0-.2 0-.4-.2-.5l-.4-.3-1.3-.2a.6.6 0 0 1-.4-.4l-.2-.7V16l.1-1.6.4-1c.1-.1.3-.3.5-.3s.3.1.4.3l.2.6v.6c0 .8.2 1.3.6 1.8.4.4 1 .6 1.8.6s1.5-.3 2-1c.5-.5.8-1.5.8-2.7 0-1.3-.3-2.3-.8-2.9-.5-.6-1.2-1-2.1-1-.8 0-1.5.3-2.2.8a5 5 0 0 0-1.5 2.2l-.2.5v.1l-.2-2.6-.1-.6c-.1-.2-.3-.3-.5-.3l-.4.1a5 5 0 0 0-.7.2l-4.7 1.4c-.2 0-.4.2-.5.3l-.2.5.1.4.4.3h.4l.3.3V22.7l-.3.3-.4.1-.3.3-.1.5c0 .2 0 .4.2.5.1.2.3.2.5.2h8.2Zm17.3-1c-1 1-2.6 1.4-4.5 1.4a6 6 0 0 1-2.7-.5c-.2-.2-.4-.2-.6-.2-.2 0-.4 0-.6.2l-.8.3-.7.2c-.2 0-.3 0-.5-.2l-.3-.6-.5-3.3v-1c0-.4.1-.5.4-.6.2-.1.5-.2.7 0 .2 0 .4.2.6.5a18 18 0 0 0 1.7 2.2c.5.6 1 1 1.5 1.2.4.2 1 .3 1.4.3.6 0 1 0 1.3-.4.3-.2.4-.6.4-1 0-.3 0-.5-.2-.8-.2-.3-.5-.5-1-.7l-1.7-.6c-1.2-.3-2.2-.8-3-1.2a5 5 0 0 1-1.8-1.8 5 5 0 0 1-.6-2.5 4.7 4.7 0 0 1 3-4.4 7.2 7.2 0 0 1 4.6-.4c.4.1.8.2 1 .4l.5.2.6-.2a32.7 32.7 0 0 1 1.4-.6l.5.2.2.7.5 3v1c0 .3-.2.5-.4.5h-.6l-.6-.6c-.8-1.2-1.5-2-2.2-2.6-.7-.5-1.4-.7-2.1-.7-.5 0-1 0-1.2.3-.3.2-.4.5-.4 1 0 .2 0 .4.2.6 0 .3.3.5.6.7l1.4.5c1.6.5 2.8 1 3.7 1.6.8.5 1.4 1.1 1.8 1.8.3.8.5 1.6.5 2.5 0 1.6-.5 2.8-1.5 3.7Z" fill="#333D4B"/><path fill-rule="evenodd" clip-rule="evenodd" d="M14.5 5C11 1.5 5.8 1 2.9 3.9c-3 2.9-2.4 8 1.1 11.6 1 1 2 1.6 3.2 2.2.3-2.2 1.4-4.3 3-6l-1.6-.5C5 10.2 3.5 7.4 3 4L4 5.3C4.6 6 5 6.9 6 7.5 7 8.5 8.3 9 9.8 9.3h.2l1.8.9c1.4-1 3-1.8 4.8-2C16 7 15.4 5.9 14.5 5Zm-6 13.5a10 10 0 0 1 3-6c3.5-3.5 8.7-4 11.6-1.1 3 2.9 2.4 8-1.1 11.6a10 10 0 0 1-6.8 3c-2 0-3.6-.7-4.8-1.9a6.8 6.8 0 0 1-1.9-5.6Zm5.2 1.8c1.1-1 2.4-1.3 3.7-1.6 3.5-1 5.1-3.8 5.5-7.1l-.9 1.2c-.6.8-1.1 1.6-2 2.2-1.1 1-2.5 1.4-4 1.8-3.4 1-5 3.9-5.4 7.1l.9-1.2c.6-.9 1.3-1.7 2.2-2.4Z" fill="#0E8784"/></svg>